<?xml version="1.0" standalone="no"?>
<!DOCTYPE svg PUBLIC "-//W3C//DTD SVG 1.1//EN" "http://www.w3.org/Graphics/SVG/1.1/DTD/svg11.dtd">

<svg width="601" height="557" version="1.1" xmlns="http://www.w3.org/2000/svg">
	<ellipse stroke="black" stroke-width="1" fill="none" cx="301.5" cy="287.5" rx="20" ry="20"/>
	<text x="296.5" y="293.5" font-family="Times New Roman" font-size="20">0</text>
	<ellipse stroke="black" stroke-width="1" fill="none" cx="301.5" cy="20.5" rx="20" ry="20"/>
	<text x="296.5" y="26.5" font-family="Times New Roman" font-size="20">1</text>
	<ellipse stroke="black" stroke-width="1" fill="none" cx="301.5" cy="20.5" rx="14" ry="14"/>
	<ellipse stroke="black" stroke-width="1" fill="none" cx="161.5" cy="42.5" rx="20" ry="20"/>
	<text x="156.5" y="48.5" font-family="Times New Roman" font-size="20">2</text>
	<ellipse stroke="black" stroke-width="1" fill="none" cx="161.5" cy="42.5" rx="14" ry="14"/>
	<ellipse stroke="black" stroke-width="1" fill="none" cx="74.5" cy="114.5" rx="20" ry="20"/>
	<text x="69.5" y="120.5" font-family="Times New Roman" font-size="20">3</text>
	<ellipse stroke="black" stroke-width="1" fill="none" cx="74.5" cy="114.5" rx="14" ry="14"/>
	<ellipse stroke="black" stroke-width="1" fill="none" cx="22.5" cy="220.5" rx="20" ry="20"/>
	<text x="17.5" y="226.5" font-family="Times New Roman" font-size="20">4</text>
	<ellipse stroke="black" stroke-width="1" fill="none" cx="22.5" cy="220.5" rx="14" ry="14"/>
	<ellipse stroke="black" stroke-width="1" fill="none" cx="30.5" cy="322.5" rx="20" ry="20"/>
	<text x="25.5" y="328.5" font-family="Times New Roman" font-size="20">5</text>
	<ellipse stroke="black" stroke-width="1" fill="none" cx="30.5" cy="322.5" rx="14" ry="14"/>
	<ellipse stroke="black" stroke-width="1" fill="none" cx="66.5" cy="415.5" rx="20" ry="20"/>
	<text x="61.5" y="421.5" font-family="Times New Roman" font-size="20">6</text>
	<ellipse stroke="black" stroke-width="1" fill="none" cx="66.5" cy="415.5" rx="14" ry="14"/>
	<ellipse stroke="black" stroke-width="1" fill="none" cx="161.5" cy="494.5" rx="20" ry="20"/>
	<text x="156.5" y="500.5" font-family="Times New Roman" font-size="20">7</text>
	<ellipse stroke="black" stroke-width="1" fill="none" cx="161.5" cy="494.5" rx="14" ry="14"/>
	<ellipse stroke="black" stroke-width="1" fill="none" cx="275.5" cy="535.5" rx="20" ry="20"/>
	<text x="265.5" y="541.5" font-family="Times New Roman" font-size="20">15</text>
	<ellipse stroke="black" stroke-width="1" fill="none" cx="402.5" cy="31.5" rx="20" ry="20"/>
	<text x="397.5" y="37.5" font-family="Times New Roman" font-size="20">8</text>
	<ellipse stroke="black" stroke-width="1" fill="none" cx="402.5" cy="31.5" rx="14" ry="14"/>
	<ellipse stroke="black" stroke-width="1" fill="none" cx="486.5" cy="65.5" rx="20" ry="20"/>
	<text x="481.5" y="71.5" font-family="Times New Roman" font-size="20">9</text>
	<ellipse stroke="black" stroke-width="1" fill="none" cx="486.5" cy="65.5" rx="14" ry="14"/>
	<ellipse stroke="black" stroke-width="1" fill="none" cx="550.5" cy="146.5" rx="20" ry="20"/>
	<text x="540.5" y="152.5" font-family="Times New Roman" font-size="20">10</text>
	<ellipse stroke="black" stroke-width="1" fill="none" cx="550.5" cy="146.5" rx="14" ry="14"/>
	<ellipse stroke="black" stroke-width="1" fill="none" cx="579.5" cy="251.5" rx="20" ry="20"/>
	<text x="569.5" y="257.5" font-family="Times New Roman" font-size="20">11</text>
	<ellipse stroke="black" stroke-width="1" fill="none" cx="579.5" cy="251.5" rx="14" ry="14"/>
	<ellipse stroke="black" stroke-width="1" fill="none" cx="563.5" cy="347.5" rx="20" ry="20"/>
	<text x="553.5" y="353.5" font-family="Times New Roman" font-size="20">12</text>
	<ellipse stroke="black" stroke-width="1" fill="none" cx="563.5" cy="347.5" rx="14" ry="14"/>
	<ellipse stroke="black" stroke-width="1" fill="none" cx="514.5" cy="462.5" rx="20" ry="20"/>
	<text x="504.5" y="468.5" font-family="Times New Roman" font-size="20">13</text>
	<ellipse stroke="black" stroke-width="1" fill="none" cx="514.5" cy="462.5" rx="14" ry="14"/>
	<ellipse stroke="black" stroke-width="1" fill="none" cx="402.5" cy="535.5" rx="20" ry="20"/>
	<text x="392.5" y="541.5" font-family="Times New Roman" font-size="20">14</text>
	<ellipse stroke="black" stroke-width="1" fill="none" cx="402.5" cy="535.5" rx="14" ry="14"/>
	<polygon stroke="black" stroke-width="1" points="301.5,267.5 301.5,40.5"/>
	<polygon fill="black" stroke-width="1" points="301.5,40.5 296.5,48.5 306.5,48.5"/>
	<text x="306.5" y="160.5" font-family="Times New Roman" font-size="20">bool</text>
	<polygon stroke="black" stroke-width="1" points="291.577,270.135 171.423,59.865"/>
	<polygon fill="black" stroke-width="1" points="171.423,59.865 171.051,69.292 179.733,64.33"/>
	<text x="238.5" y="158.5" font-family="Times New Roman" font-size="20">break</text>
	<polygon stroke="black" stroke-width="1" points="285.593,275.377 90.407,126.623"/>
	<polygon fill="black" stroke-width="1" points="90.407,126.623 93.739,135.449 99.801,127.495"/>
	<text x="193.5" y="192.5" font-family="Times New Roman" font-size="20">continue</text>
	<polygon stroke="black" stroke-width="1" points="282.053,282.83 41.947,225.17"/>
	<polygon fill="black" stroke-width="1" points="41.947,225.17 48.558,231.9 50.893,222.176"/>
	<text x="160.5" y="243.5" font-family="Times New Roman" font-size="20">else</text>
	<polygon stroke="black" stroke-width="1" points="281.665,290.062 50.335,319.938"/>
	<polygon fill="black" stroke-width="1" points="50.335,319.938 58.91,323.872 57.629,313.955"/>
	<text x="140.5" y="293.5" font-family="Times New Roman" font-size="20">false</text>
	<polygon stroke="black" stroke-width="1" points="283.936,297.067 84.064,405.933"/>
	<polygon fill="black" stroke-width="1" points="84.064,405.933 93.481,406.498 88.697,397.716"/>
	<text x="162.5" y="342.5" font-family="Times New Roman" font-size="20">fn</text>
	<polygon stroke="black" stroke-width="1" points="290.295,304.067 172.705,477.933"/>
	<polygon fill="black" stroke-width="1" points="172.705,477.933 181.328,474.108 173.045,468.505"/>
	<text x="199.5" y="383.5" font-family="Times New Roman" font-size="20">i32</text>
	<polygon stroke="black" stroke-width="1" points="308.84,268.896 395.16,50.104"/>
	<polygon fill="black" stroke-width="1" points="395.16,50.104 387.573,55.711 396.875,59.381"/>
	<text x="359.5" y="174.5" font-family="Times New Roman" font-size="20">if</text>
	<polygon stroke="black" stroke-width="1" points="314.304,272.136 473.696,80.864"/>
	<polygon fill="black" stroke-width="1" points="473.696,80.864 464.734,83.809 472.416,90.211"/>
	<text x="399.5" y="196.5" font-family="Times New Roman" font-size="20">let</text>
	<polygon stroke="black" stroke-width="1" points="318.903,277.645 533.097,156.355"/>
	<polygon fill="black" stroke-width="1" points="533.097,156.355 523.671,155.946 528.599,164.648"/>
	<text x="430.5" y="238.5" font-family="Times New Roman" font-size="20">loop</text>
	<polygon stroke="black" stroke-width="1" points="321.334,284.932 559.666,254.068"/>
	<polygon fill="black" stroke-width="1" points="559.666,254.068 551.09,250.137 552.374,260.054"/>
	<text x="430.5" y="292.5" font-family="Times New Roman" font-size="20">mut</text>
	<polygon stroke="black" stroke-width="1" points="320.995,291.965 544.005,343.035"/>
	<polygon fill="black" stroke-width="1" points="544.005,343.035 537.323,336.376 535.09,346.123"/>
	<text x="379.5" y="341.5" font-family="Times New Roman" font-size="20">println!</text>
	<polygon stroke="black" stroke-width="1" points="316.953,300.196 499.047,449.804"/>
	<polygon fill="black" stroke-width="1" points="499.047,449.804 496.04,440.862 489.691,448.588"/>
	<text x="355.5" y="395.5" font-family="Times New Roman" font-size="20">return</text>
	<polygon stroke="black" stroke-width="1" points="309.044,306.023 394.956,516.977"/>
	<polygon fill="black" stroke-width="1" points="394.956,516.977 396.57,507.682 387.308,511.454"/>
	<text x="313.5" y="426.5" font-family="Times New Roman" font-size="20">true</text>
	<polygon stroke="black" stroke-width="1" points="299.415,307.391 277.585,515.609"/>
	<polygon fill="black" stroke-width="1" points="277.585,515.609 283.392,508.174 273.447,507.131"/>
	<text x="240.5" y="416.5" font-family="Times New Roman" font-size="20">other</text>
</svg>
